<?xml version="1.0" encoding="UTF-8" standalone="no"?>
<!-- Created with Inkscape (http://www.inkscape.org/) -->

<svg
   version="1.1"
   id="svg1"
   width="16"
   height="16"
   viewBox="0 0 16 16"
   sodipodi:docname="obj-gear.svg"
   inkscape:version="1.4.2 (ebf0e940, 2025-05-08)"
   xmlns:inkscape="http://www.inkscape.org/namespaces/inkscape"
   xmlns:sodipodi="http://sodipodi.sourceforge.net/DTD/sodipodi-0.dtd"
   xmlns="http://www.w3.org/2000/svg"
   xmlns:svg="http://www.w3.org/2000/svg">
  <defs
     id="defs1" />
  <sodipodi:namedview
     id="namedview1"
     pagecolor="#ffffff"
     bordercolor="#111111"
     borderopacity="1"
     inkscape:showpageshadow="0"
     inkscape:pageopacity="0"
     inkscape:pagecheckerboard="1"
     inkscape:deskcolor="#d1d1d1"
     inkscape:zoom="26"
     inkscape:cx="9.4230769"
     inkscape:cy="7.5961538"
     inkscape:window-width="1232"
     inkscape:window-height="824"
     inkscape:window-x="0"
     inkscape:window-y="25"
     inkscape:window-maximized="0"
     inkscape:current-layer="g1" />
  <g
     inkscape:groupmode="layer"
     inkscape:label="Image"
     id="g1">
    <path
       id="text1"
       style="font-size:21.3333px;font-family:Arial;-inkscape-font-specification:Arial"
       d="M 7.2089844 2.1777344 L 7.2089844 4.0722656 C 7.0075958 4.1139322 6.8124997 4.1736112 6.625 4.25 C 6.4375003 4.3263887 6.2575952 4.4125436 6.0839844 4.5097656 L 4.6972656 3.1152344 L 3.3125 4.5 L 4.6777344 5.8652344 C 4.559679 6.0457896 4.4583332 6.2361115 4.375 6.4375 C 4.2916668 6.6319441 4.2215711 6.8374569 4.1660156 7.0527344 L 2.1777344 7.0527344 L 2.1777344 9.0097656 L 4.1875 9.0097656 C 4.3055553 9.4264316 4.479818 9.8166239 4.7089844 10.177734 L 3.4160156 11.46875 L 4.8027344 12.853516 L 6.1464844 11.509766 C 6.4659283 11.690321 6.8200961 11.825738 7.2089844 11.916016 L 7.2089844 13.822266 L 9.1660156 13.822266 L 9.1660156 11.865234 C 9.5340706 11.761068 9.8825958 11.604818 10.208984 11.396484 L 11.552734 12.740234 L 12.9375 11.353516 L 11.5625 9.9902344 C 11.652778 9.8374568 11.73329 9.6812063 11.802734 9.5214844 C 11.872179 9.3617624 11.927083 9.1903209 11.96875 9.0097656 L 13.822266 9.0097656 L 13.822266 7.0527344 L 11.990234 7.0527344 C 11.948568 6.8721791 11.89171 6.7007376 11.822266 6.5410156 C 11.759766 6.3743492 11.686849 6.2124563 11.603516 6.0527344 L 13.041016 4.6152344 L 11.65625 3.2285156 L 10.259766 4.625 C 10.093099 4.5138891 9.9207894 4.4173176 9.7402344 4.3339844 C 9.5596791 4.2437066 9.3674042 4.1707897 9.1660156 4.1152344 L 9.1660156 2.1777344 L 7.2089844 2.1777344 z M 8.1875 6.4472656 C 8.4027775 6.4472656 8.6082902 6.4889324 8.8027344 6.5722656 C 8.9971785 6.6555988 9.1638457 6.7701826 9.3027344 6.9160156 C 9.4485675 7.0549043 9.5631512 7.2215715 9.6464844 7.4160156 C 9.7298176 7.6104598 9.7714844 7.8159725 9.7714844 8.03125 C 9.7714844 8.2534719 9.7298176 8.4618059 9.6464844 8.65625 C 9.5631512 8.8437497 9.4485675 9.0104169 9.3027344 9.15625 C 9.1638457 9.2951387 8.9971785 9.4069012 8.8027344 9.4902344 C 8.6082902 9.5735676 8.4027775 9.6152344 8.1875 9.6152344 C 7.9652781 9.6152344 7.7569441 9.5735676 7.5625 9.4902344 C 7.3750003 9.4069012 7.2083331 9.2951387 7.0625 9.15625 C 6.9236113 9.0104169 6.8118488 8.8437497 6.7285156 8.65625 C 6.6451824 8.4618059 6.6035156 8.2534719 6.6035156 8.03125 C 6.6035156 7.8159725 6.6451824 7.6104598 6.7285156 7.4160156 C 6.8118488 7.2215715 6.9236113 7.0549043 7.0625 6.9160156 C 7.2083331 6.7701826 7.3750003 6.6555988 7.5625 6.5722656 C 7.7569441 6.4889324 7.9652781 6.4472656 8.1875 6.4472656 z " />
  </g>
</svg>
