<?xml version="1.0" encoding="UTF-8" standalone="no"?>
<!-- Created with Inkscape (http://www.inkscape.org/) -->

<svg
   width="48"
   height="48"
   viewBox="0 0 48 48"
   version="1.1"
   id="svg1"
   xml:space="preserve"
   inkscape:version="1.4.2 (ebf0e940, 2025-05-08)"
   sodipodi:docname="tool-spurgear.svg"
   xmlns:inkscape="http://www.inkscape.org/namespaces/inkscape"
   xmlns:sodipodi="http://sodipodi.sourceforge.net/DTD/sodipodi-0.dtd"
   xmlns="http://www.w3.org/2000/svg"
   xmlns:svg="http://www.w3.org/2000/svg"><sodipodi:namedview
     id="namedview1"
     pagecolor="#ffffff"
     bordercolor="#111111"
     borderopacity="1"
     inkscape:showpageshadow="0"
     inkscape:pageopacity="0"
     inkscape:pagecheckerboard="1"
     inkscape:deskcolor="#d1d1d1"
     inkscape:document-units="px"
     inkscape:zoom="9.7253733"
     inkscape:cx="21.952885"
     inkscape:cy="24.009361"
     inkscape:window-width="1336"
     inkscape:window-height="840"
     inkscape:window-x="0"
     inkscape:window-y="25"
     inkscape:window-maximized="0"
     inkscape:current-layer="layer1" /><defs
     id="defs1" /><g
     inkscape:label="Layer 1"
     inkscape:groupmode="layer"
     id="layer1"><path
       style="fill:none;stroke:#000000;stroke-width:1;stroke-dasharray:none;stroke-opacity:1"
       d="m 15.667942,45.166647 c -0.379378,-0.143077 -0.730389,-0.315679 -0.780024,-0.383559 -0.12161,-0.166311 -0.492852,-1.533143 -0.639284,-2.353705 -0.164971,-0.924447 -0.162744,-2.44731 0.0047,-3.182519 0.147638,-0.648421 0.177462,-0.711096 0.896213,-1.883384 0.54708,-0.89229 0.805847,-1.570961 0.723732,-1.898133 -0.02169,-0.08641 -0.247896,-0.320931 -0.502688,-0.521164 -0.254791,-0.200233 -0.709369,-0.580931 -1.010172,-0.845995 -0.348138,-0.306774 -0.605704,-0.480913 -0.708666,-0.479125 -0.38329,0.0067 -0.928017,0.3441 -1.852118,1.147341 -1.228192,1.067559 -1.8587608,1.353166 -3.4731703,1.573123 -0.9886211,0.134696 -3.1481859,0.05534 -3.6461342,-0.133977 -0.1637286,-0.06225 -0.877774,-1.236607 -0.877774,-1.443634 0,-0.180752 0.5400224,-1.405259 0.8908354,-2.019981 0.4640169,-0.813086 0.8929707,-1.395663 1.487276,-2.019922 0.7662327,-0.80485 1.1257208,-1.020932 2.4459649,-1.470224 1.1865496,-0.403795 1.3055604,-0.460667 1.7134692,-0.818816 0.292853,-0.257128 0.300859,-0.347746 0.108571,-1.228782 -0.07623,-0.349256 -0.159655,-0.861625 -0.185397,-1.138598 -0.0276,-0.297006 -0.09313,-0.5608 -0.15974,-0.643058 -0.06318,-0.07802 -0.3281784,-0.199235 -0.601489,-0.275123 -0.4295859,-0.119279 -0.6240754,-0.130118 -1.6113897,-0.0898 -1.2800637,0.05227 -1.5486971,0.01 -2.4849106,-0.391025 C 4.2603511,24.175977 2.7522118,23.046306 1.8186904,21.97974 L 1.4086435,21.511254 1.5251023,20.831502 c 0.064052,-0.373864 0.1454192,-0.750168 0.1808153,-0.836232 0.044163,-0.107379 0.3338102,-0.286625 0.9230974,-0.571252 1.5185079,-0.733442 2.6911903,-1.050918 4.0762327,-1.103544 0.9638721,-0.03662 1.0830825,-0.01059 2.448092,0.53465 0.9083533,0.362833 1.5555113,0.494721 1.9462813,0.396644 0.134242,-0.03369 0.262798,-0.209966 0.555004,-0.761007 0.209162,-0.394437 0.51134,-0.919353 0.671507,-1.166481 0.329641,-0.508616 0.328343,-0.552436 -0.03279,-1.107375 C 12.12896,15.964308 11.775372,15.628807 11.163286,15.144656 10.166846,14.356489 10.055957,14.242891 9.7011656,13.64682 9.0112483,12.48772 8.5779257,10.859937 8.4520714,8.9545778 L 8.405481,8.2492271 9.0480983,7.7130456 C 9.4015372,7.4181457 9.7155196,7.1768641 9.7458376,7.1768641 c 0.1901756,0 1.8749444,0.4716759 2.3987284,0.6715595 1.613059,0.6155664 3.045063,1.6204846 3.447563,2.4193494 0.486939,0.966456 1.06388,1.907256 1.300972,2.121455 0.477505,0.431397 0.516929,0.435054 1.293748,0.120025 0.3789,-0.153658 0.862025,-0.332771 1.07361,-0.398028 0.66111,-0.203901 0.755406,-0.254743 0.827859,-0.446365 0.167878,-0.443999 0.153977,-0.879183 -0.06186,-1.9365738 C 19.724013,8.2465898 19.72495,8.2578028 19.845357,7.560478 20.094043,6.1202435 20.753591,4.6990865 21.865559,3.2074583 l 0.482318,-0.6469956 h 0.829528 0.829529 l 0.482317,0.6469956 c 1.022444,1.3715377 1.707277,2.781443 1.973069,4.06207 0.149234,0.719038 0.121778,1.2730026 -0.120145,2.4240626 -0.230245,1.0954921 -0.246521,1.5194401 -0.07568,1.9712691 0.07245,0.191622 0.166749,0.242464 0.827859,0.446365 0.211585,0.06526 0.694709,0.24437 1.073609,0.398028 0.776819,0.315029 0.816243,0.311372 1.293748,-0.120025 0.237093,-0.214199 0.814034,-1.154999 1.300973,-2.121455 0.4025,-0.7988648 1.834504,-1.803783 3.447562,-2.4193494 0.523784,-0.1998836 2.208553,-0.6715595 2.398729,-0.6715595 0.03032,0 0.344302,0.2412816 0.697741,0.5361815 l 0.642617,0.5361815 -0.04659,0.7053507 c -0.125854,1.9053592 -0.559177,3.5331422 -1.249095,4.6922422 -0.354792,0.596071 -0.465682,0.709669 -1.462118,1.497836 -0.612085,0.484151 -0.965674,0.819652 -1.130056,1.072249 -0.361137,0.554939 -0.362435,0.598759 -0.03279,1.107375 0.160167,0.247128 0.462345,0.772044 0.671506,1.166481 0.292206,0.551041 0.420763,0.727314 0.555005,0.761007 0.39077,0.09808 1.037928,-0.03381 1.946283,-0.396644 1.365009,-0.545238 1.484219,-0.571273 2.448092,-0.53465 1.385042,0.05263 2.557724,0.370102 4.076232,1.103544 0.589288,0.284627 0.878935,0.463873 0.923098,0.571252 0.0354,0.08606 0.116763,0.462368 0.180815,0.836232 l 0.116459,0.679752 -0.410047,0.468486 c -0.933521,1.066566 -2.441661,2.196237 -3.58701,2.686849 -0.936214,0.401028 -1.204847,0.4433 -2.484911,0.391025 -0.987314,-0.04032 -1.181804,-0.02948 -1.61139,0.0898 -0.273312,0.07589 -0.53831,0.197099 -0.60149,0.275123 -0.06661,0.08226 -0.132137,0.346052 -0.159741,0.643058 -0.02574,0.276973 -0.10917,0.789342 -0.185396,1.138598 -0.192289,0.881036 -0.184282,0.971654 0.10857,1.228782 0.40791,0.358149 0.52692,0.415021 1.713472,0.818816 1.320244,0.449292 1.679732,0.665374 2.445964,1.470224 0.594306,0.624259 1.02326,1.206836 1.487276,2.019922 0.350813,0.614722 0.890836,1.839229 0.890836,2.019981 0,0.207027 -0.714046,1.381384 -0.877774,1.443634 -0.497949,0.18932 -2.657513,0.268673 -3.646134,0.133977 -1.614412,-0.219957 -2.244981,-0.505564 -3.473172,-1.573123 -0.920981,-0.800528 -1.468741,-1.140586 -1.84812,-1.147341 -0.100188,-0.0018 -0.434431,0.233277 -0.915992,0.644186 -0.417032,0.355848 -0.87293,0.734633 -1.013105,0.841745 -0.140175,0.107112 -0.273088,0.267358 -0.295361,0.356103 -0.08747,0.34851 0.174858,1.00933 0.833671,2.100058 0.558823,0.925187 0.669594,1.160786 0.781256,1.661655 0.17034,0.764079 0.174402,2.277502 0.0086,3.206573 -0.163554,0.916508 -0.529493,2.218361 -0.666564,2.371351 -0.06246,0.06971 -0.425538,0.241961 -0.806845,0.382775 l -0.693286,0.256026 -0.466079,-0.276893 c -1.107786,-0.658123 -2.505337,-1.911071 -3.165734,-2.838177 -0.39384,-0.552897 -0.804404,-1.35755 -0.855071,-1.675829 -0.01862,-0.116984 -0.100827,-0.652969 -0.182677,-1.191078 -0.148706,-0.977648 -0.374291,-1.618429 -0.650446,-1.847618 -0.154378,-0.128122 -2.729761,-0.128122 -2.884139,0 -0.276156,0.229189 -0.50174,0.86997 -0.650447,1.847618 -0.08185,0.538109 -0.164054,1.074094 -0.182677,1.191078 -0.05067,0.318279 -0.46123,1.122932 -0.85507,1.675829 -0.654325,0.918582 -1.94922,2.086759 -3.098693,2.795456 -0.282892,0.174415 -0.531534,0.314811 -0.552538,0.311992 -0.021,-0.0028 -0.34859,-0.122189 -0.727969,-0.265266 z m 1.390452,-0.322946 c 1.303974,-0.867635 2.355703,-1.868943 3.038964,-2.893276 0.479766,-0.719256 0.599078,-1.077957 0.799149,-2.40256 0.177592,-1.175782 0.312102,-1.587373 0.658619,-2.015332 l 0.141046,-0.174197 1.422585,-0.0093 c 1.047381,-0.0069 1.460492,0.01425 1.566308,0.0801 0.07905,0.04919 0.245116,0.279674 0.369042,0.512181 0.189653,0.355826 0.253436,0.608865 0.402955,1.598594 0.201333,1.33271 0.320175,1.690628 0.80039,2.410559 0.687071,1.030044 1.734384,2.025237 3.058425,2.906224 l 0.595828,0.396451 0.357447,-0.126178 c 0.196595,-0.0694 0.518855,-0.186214 0.716132,-0.259592 l 0.358686,-0.133416 0.218786,-0.750079 c 0.392218,-1.344672 0.452236,-1.76059 0.456458,-3.163197 0.005,-1.671454 -0.04458,-1.853646 -0.879001,-3.228014 -0.625217,-1.029791 -0.825888,-1.521475 -0.827539,-2.027635 -9.82e-4,-0.301173 0.09084,-0.415941 0.697537,-0.871891 0.249458,-0.187472 0.667016,-0.542223 0.927908,-0.788335 0.409015,-0.385844 0.510319,-0.447419 0.735514,-0.447063 0.471208,7.47e-4 1.10846,0.372759 1.939857,1.13244 0.897291,0.819891 1.445612,1.134484 2.398786,1.376276 1.219917,0.309458 2.592482,0.363609 4.106144,0.161998 0.560879,-0.07471 0.589643,-0.09932 1.013561,-0.867268 l 0.283042,-0.512746 -0.277542,-0.639906 c -0.601491,-1.386806 -1.359718,-2.557467 -2.202596,-3.40069 -0.65911,-0.65938 -1.068903,-0.890753 -2.33023,-1.315673 -0.929151,-0.313015 -1.211081,-0.440638 -1.55068,-0.701953 -0.509036,-0.391695 -0.545762,-0.523223 -0.361505,-1.294678 0.07672,-0.321216 0.177267,-0.895716 0.223437,-1.276666 0.07563,-0.624042 0.103537,-0.70912 0.281757,-0.859083 0.378529,-0.318511 0.853621,-0.396358 2.322805,-0.380606 1.222484,0.01311 1.378473,8.37e-4 1.793578,-0.141076 0.647607,-0.2214 1.633486,-0.753658 2.278789,-1.230276 0.694907,-0.513256 2.048399,-1.825257 2.101583,-2.037161 0.04041,-0.161004 -0.08797,-1.043905 -0.19488,-1.34021 -0.04216,-0.116847 -0.294063,-0.274939 -0.915271,-0.574414 -1.556163,-0.750201 -2.798799,-1.071132 -4.14454,-1.070394 l -0.839345,4.6e-4 -1.185808,0.466364 c -1.094545,0.430472 -1.228461,0.466821 -1.740021,0.472297 -0.658811,0.0071 -0.677117,-0.0064 -1.092338,-0.800681 -0.157686,-0.301652 -0.447253,-0.798744 -0.643482,-1.104648 -0.299617,-0.467076 -0.350685,-0.593755 -0.318733,-0.79065 0.07,-0.431348 0.497194,-0.951161 1.325194,-1.6125 1.168345,-0.933177 1.3763,-1.165742 1.786747,-1.998203 0.575148,-1.166505 0.889807,-2.458195 0.971105,-3.9864338 L 37.746036,8.3235281 37.199249,7.8551143 C 36.898516,7.5974867 36.602874,7.3867412 36.542267,7.3867911 c -0.202006,1.66e-4 -1.502116,0.3370068 -2.033695,0.5269027 -0.638252,0.2280028 -1.771043,0.7850555 -2.221784,1.0925672 -0.763081,0.5206013 -1.17214,1.003943 -1.775345,2.097739 -0.441777,0.801077 -0.66729,1.130216 -0.976374,1.425032 -0.335544,0.320055 -0.44377,0.383361 -0.655388,0.383361 -0.139412,0 -0.354208,-0.0535 -0.477325,-0.118882 -0.123117,-0.06539 -0.646582,-0.263729 -1.163256,-0.440764 -1.126076,-0.385843 -1.186071,-0.443594 -1.24057,-1.194162 -0.03023,-0.416343 0.0066,-0.734568 0.185609,-1.6035748 0.183995,-0.8932233 0.216445,-1.1827001 0.184259,-1.6437186 -0.09242,-1.3238041 -0.891846,-3.149918 -2.020939,-4.6164014 L 23.970485,2.8052718 h -0.79308 -0.79308 l -0.376973,0.4896184 c -1.129094,1.4664834 -1.928518,3.2925973 -2.02094,4.6164014 -0.03219,0.4610185 2.64e-4,0.7504953 0.184259,1.6437186 0.179007,0.8690068 0.21584,1.1872318 0.18561,1.6035748 -0.0545,0.750568 -0.114494,0.808319 -1.240571,1.194162 -0.516673,0.177035 -1.040138,0.375378 -1.163255,0.440764 -0.123118,0.06539 -0.337914,0.118882 -0.477325,0.118882 -0.211618,0 -0.319845,-0.06331 -0.655389,-0.383361 C 16.510657,12.234216 16.285145,11.905077 15.843367,11.104 15.240162,10.010204 14.831103,9.5268623 14.068023,9.006261 13.617282,8.6987493 12.48449,8.1416966 11.846238,7.9136938 11.31466,7.7237979 10.014549,7.3869571 9.8125434,7.3867911 9.7519366,7.3867412 9.4562952,7.5974867 9.1555637,7.8551143 l -0.5467875,0.4684138 0.042989,0.8080911 c 0.081299,1.5282388 0.3959579,2.8199288 0.9711046,3.9864338 0.4104462,0.832461 0.6184002,1.065026 1.7867452,1.998203 0.828001,0.661339 1.255196,1.181152 1.325195,1.6125 0.03195,0.196895 -0.01912,0.323574 -0.318733,0.79065 -0.19623,0.305904 -0.485797,0.802996 -0.643483,1.104648 -0.41522,0.794315 -0.433526,0.807733 -1.092337,0.800681 -0.51156,-0.0055 -0.645476,-0.04182 -1.7400192,-0.472297 l -1.1858076,-0.466364 -0.8393457,-4.6e-4 c -1.3457408,-7.38e-4 -2.588377,0.320193 -4.1445403,1.070394 -0.6212075,0.299475 -0.8731121,0.457567 -0.9152704,0.574414 -0.1069067,0.296305 -0.2352897,1.179206 -0.1948804,1.34021 0.053185,0.211904 1.4066759,1.523905 2.1015833,2.037161 0.6453035,0.476618 1.6311825,1.008876 2.2787894,1.230276 0.4151046,0.141913 0.5710937,0.154183 1.7935775,0.141076 1.4691838,-0.01575 1.944275,0.06209 2.3228024,0.380606 0.178221,0.149963 0.206124,0.235041 0.281757,0.859083 0.04617,0.38095 0.146718,0.95545 0.223438,1.276666 0.184257,0.771455 0.147531,0.902983 -0.361506,1.294678 -0.3395978,0.261315 -0.6215272,0.388938 -1.5506771,0.701953 -1.2613269,0.42492 -1.6711197,0.656293 -2.3302302,1.315673 -0.8428785,0.843223 -1.6011047,2.013884 -2.2025956,3.40069 L 3.9397897,34.7484 4.2228316,35.261146 c 0.4239177,0.76795 0.4526818,0.792562 1.0135615,0.867268 1.5138997,0.201643 2.8862242,0.14746 4.1067113,-0.162142 0.9668556,-0.245263 1.4197546,-0.504539 2.3517726,-1.346345 0.877457,-0.792525 1.507999,-1.161468 1.9863,-1.162227 0.225195,-3.56e-4 0.3265,0.06122 0.735515,0.447063 0.260892,0.246112 0.67845,0.600863 0.927907,0.788335 0.606702,0.45595 0.69852,0.570718 0.697538,0.871891 -0.0017,0.506062 -0.202321,0.997841 -0.827038,2.02681 -0.384521,0.633342 -0.675852,1.200817 -0.745548,1.452232 -0.178946,0.645517 -0.216301,2.208489 -0.07561,3.163732 0.0969,0.657912 0.539705,2.423048 0.630675,2.514018 0.04877,0.04877 1.262975,0.49548 1.360289,0.500456 0.05342,0.0027 0.35649,-0.16761 0.673493,-0.378536 z"
       id="path1" /><ellipse
       style="fill:#ff0000;fill-opacity:0.99;stroke:none;stroke-width:1.5;stroke-dasharray:none;stroke-opacity:1"
       id="path2"
       cx="23.177414"
       cy="24"
       rx="2.7615619"
       ry="2.6081419" /><ellipse
       style="fill:none;stroke:#000000;stroke-width:1;stroke-dasharray:2,1;stroke-dashoffset:0;stroke-opacity:1"
       id="path3"
       cx="20.330742"
       cy="26.454546"
       rx="17.109613"
       ry="16.712742"
       transform="rotate(-6.4581698)" /><ellipse
       style="fill:#ff0000;fill-opacity:0.99;stroke:none;stroke-width:1.5;stroke-dasharray:none;stroke-opacity:1"
       id="path2-5"
       cx="40.185123"
       cy="24.019438"
       rx="2.7615619"
       ry="2.6081419" /><text
       xml:space="preserve"
       style="font-size:10.6667px;font-family:Arial;-inkscape-font-specification:Arial;text-align:start;writing-mode:lr-tb;direction:ltr;text-anchor:start;fill:#000000;fill-opacity:1;stroke:none;stroke-width:1;stroke-dasharray:1, 1;stroke-dashoffset:0;stroke-opacity:1"
       x="24.163601"
       y="32.697983"
       id="text3"><tspan
         sodipodi:role="line"
         id="tspan3"
         x="24.163601"
         y="32.697983"
         style="font-size:10.6667px">1</tspan></text><text
       xml:space="preserve"
       style="font-size:10.6667px;font-family:Arial;-inkscape-font-specification:Arial;text-align:start;writing-mode:lr-tb;direction:ltr;text-anchor:start;fill:#000000;fill-opacity:1;stroke:none;stroke-width:1;stroke-dasharray:1, 1;stroke-dashoffset:0;stroke-opacity:1"
       x="42.26059"
       y="32.183846"
       id="text4"><tspan
         sodipodi:role="line"
         id="tspan4"
         x="42.26059"
         y="32.183846"
         style="font-size:10.6667px">2</tspan></text></g></svg>
