<?xml version="1.0" encoding="UTF-8" standalone="no"?>
<!-- Created with Inkscape (http://www.inkscape.org/) -->

<svg
   version="1.1"
   id="svg1"
   width="32"
   height="32"
   viewBox="0 0 32 32"
   sodipodi:docname="tool-spiral.svg"
   inkscape:version="1.4.2 (ebf0e940, 2025-05-08)"
   xmlns:inkscape="http://www.inkscape.org/namespaces/inkscape"
   xmlns:sodipodi="http://sodipodi.sourceforge.net/DTD/sodipodi-0.dtd"
   xmlns="http://www.w3.org/2000/svg"
   xmlns:svg="http://www.w3.org/2000/svg">
  <defs
     id="defs1" />
  <sodipodi:namedview
     id="namedview1"
     pagecolor="#ffffff"
     bordercolor="#111111"
     borderopacity="1"
     inkscape:showpageshadow="0"
     inkscape:pageopacity="0"
     inkscape:pagecheckerboard="1"
     inkscape:deskcolor="#d1d1d1"
     inkscape:zoom="18.384776"
     inkscape:cx="15.991492"
     inkscape:cy="15.801117"
     inkscape:window-width="1304"
     inkscape:window-height="828"
     inkscape:window-x="0"
     inkscape:window-y="25"
     inkscape:window-maximized="0"
     inkscape:current-layer="g1" />
  <g
     inkscape:groupmode="layer"
     inkscape:label="Image"
     id="g1">
    <path
       sodipodi:type="spiral"
       style="fill:none;fill-rule:evenodd;stroke:#000000"
       id="path1"
       sodipodi:cx="15.338778"
       sodipodi:cy="14.305314"
       sodipodi:expansion="1"
       sodipodi:revolution="4.4927583"
       sodipodi:radius="18.384623"
       sodipodi:argument="-19.394535"
       sodipodi:t0="0.37462744"
       d="M 9.6759991,10.384982 C 11.67635,6.8193727 16.375098,5.8010922 19.841414,7.8014176 23.863346,10.122376 24.998806,15.464082 22.683792,19.390255 20.043018,23.868905 14.057225,25.121667 9.6715323,22.491447 4.7358809,19.5314 3.3657249,12.900732 6.311527,8.0557642 9.590455,2.6629035 16.866571,1.1752843 22.170632,4.4369455 28.02086,8.034465 29.625997,15.956459 26.048264,21.719473 22.132374,28.027192 13.564171,29.749888 7.3423141,25.855919 0.57700775,21.62183 -1.2632832,12.407159 2.9470549,5.7265461 7.4992054,-1.4964259 17.360554,-3.4543398 24.49985,1.0724734 32.180552,5.9425752 34.256112,16.45077 29.412736,24.048691 24.224774,32.187175 13.069594,34.380401 5.0130959,29.220391 3.0896176,27.988445 1.4051387,26.392141 0.06716076,24.541137"
       transform="matrix(-0.81818165,0,0,0.81818165,28.070016,3.2004755)" />
    <circle
       style="fill:#ff0000;stroke-width:0.0109008"
       id="path2"
       cx="15.533349"
       cy="14.935029"
       r="1.5" />
    <circle
       style="fill:#ff0000;stroke-width:0.0109008"
       id="path2-0"
       cx="28.173531"
       cy="22.897425"
       r="1.5" />
    <circle
       style="fill:#ff0000;stroke-width:0.0109008"
       id="path2-2"
       cx="20.014605"
       cy="11.311752"
       r="1.5" />
    <text
       xml:space="preserve"
       style="font-size:5.33333px;font-family:Helvetica;-inkscape-font-specification:Helvetica;text-align:start;writing-mode:lr-tb;direction:ltr;text-anchor:start;fill:#000000;stroke-width:0.01"
       x="11.640066"
       y="18.81992"
       id="text2"><tspan
         sodipodi:role="line"
         id="tspan2"
         x="11.640066"
         y="18.81992">1</tspan></text>
    <text
       xml:space="preserve"
       style="font-size:5.33333px;font-family:Helvetica;-inkscape-font-specification:Helvetica;text-align:start;writing-mode:lr-tb;direction:ltr;text-anchor:start;fill:#000000;stroke-width:0.01"
       x="19.962168"
       y="16.807383"
       id="text3"><tspan
         sodipodi:role="line"
         id="tspan3"
         x="19.962168"
         y="16.807383">2</tspan></text>
    <text
       xml:space="preserve"
       style="font-size:5.33333px;font-family:Helvetica;-inkscape-font-specification:Helvetica;text-align:start;writing-mode:lr-tb;direction:ltr;text-anchor:start;fill:#000000;stroke-width:0.01"
       x="27.305201"
       y="28.501842"
       id="text4"><tspan
         sodipodi:role="line"
         id="tspan4"
         x="27.305201"
         y="28.501842">3</tspan></text>
  </g>
</svg>
